<?xml version="1.0" ?><svg viewBox="0 0 22.82 22.84" xmlns="http://www.w3.org/2000/svg"><g data-name="Layer 2" id="Layer_2"><g data-name="Layer 1" id="Layer_1-2"><path d="M22.484,22.148H21.83l-2.036-7.91a7.391,7.391,0,0,1,.121-3.395c.574.105.73-.621.17-.692h-4.37A2.419,2.419,0,0,1,18.1,8.075h3a1.73,1.73,0,0,0,0-3.46H17.541a.346.346,0,0,0,0,.692H21.1a1.038,1.038,0,0,1,0,2.076h-3a3.12,3.12,0,0,0-3.1,2.768H12.93L13.094,9c.559.1.723-.623.162-.692H5.563A2.419,2.419,0,0,1,7.95,6.229h6.44a1.73,1.73,0,0,0,0-3.46H6.084A2.426,2.426,0,0,1,3.661.346a.346.346,0,1,0-.692,0A3.117,3.117,0,0,0,6.084,3.46H14.39a1.039,1.039,0,0,1,0,2.077H7.95A3.119,3.119,0,0,0,4.856,8.306H3.105c-.56.069-.4.8.161.692a9.658,9.658,0,0,1,.076,4.143L.992,22.148H.336a.346.346,0,0,0,0,.692H22.484A.346.346,0,0,0,22.484,22.148Zm-3.271-11.3a13.515,13.515,0,0,0-.267,1.984H12.953a6.541,6.541,0,0,1-.108-1.984ZM12.4,9a17.975,17.975,0,0,0-.272,2.537H4.238A17.831,17.831,0,0,0,3.965,9ZM1.707,22.148c.122-.59,2.6-9.623,2.493-9.921h7.961c-.108.278,2.376,9.357,2.493,9.921Zm13.662,0-2.251-8.629h5.856c-.117.122,2.061,8.222,2.141,8.629Z" data-name="air pollution" id="air_pollution"/></g></g></svg>